<?xml version="1.0" encoding="UTF-8" standalone="no"?>
<svg
   version="1.2"
   viewBox="0 0 1024 1024"
   width="1024"
   height="1024"
   id="svg1"
   sodipodi:docname="Lietuvos_Piliakalniai.svg"
   xml:space="preserve"
   inkscape:version="1.3.1 (91b66b0783, 2023-11-16)"
   xmlns:inkscape="http://www.inkscape.org/namespaces/inkscape"
   xmlns:sodipodi="http://sodipodi.sourceforge.net/DTD/sodipodi-0.dtd"
   xmlns="http://www.w3.org/2000/svg"
   xmlns:svg="http://www.w3.org/2000/svg"
   xmlns:rdf="http://www.w3.org/1999/02/22-rdf-syntax-ns#"
   xmlns:cc="http://creativecommons.org/ns#"
   xmlns:dc="http://purl.org/dc/elements/1.1/"><defs
     id="defs1"><inkscape:path-effect
       effect="fillet_chamfer"
       id="path-effect1"
       is_visible="true"
       lpeversion="1"
       nodesatellites_param="F,0,0,1,0,0,0,1 @ F,0,0,1,0,0,0,1 @ F,0,0,1,0,0,0,1 @ F,0,0,1,0,0,0,1 @ F,0,0,1,0,0,0,1 @ F,0,0,1,0,0,0,1 @ F,0,0,1,0,0,0,1 @ F,0,0,1,0,0,0,1 @ F,0,0,1,0,0,0,1 @ F,0,0,1,0,0,0,1 @ F,0,0,1,0,0,0,1 @ F,0,0,1,0,0,0,1 @ F,0,0,1,0,0,0,1 @ F,0,0,1,0,0,0,1 @ F,0,0,1,0,0,0,1 @ F,0,0,1,0,0,0,1 @ F,0,0,1,0,0,0,1 @ F,0,0,1,0,0,0,1 @ F,0,0,1,0,0,0,1 @ F,0,0,1,0,0,0,1 @ F,0,0,1,0,0,0,1 @ F,0,0,1,0,0,0,1 @ F,0,0,1,0,0,0,1 @ F,0,0,1,0,0,0,1 @ F,0,0,1,0,0,0,1 @ F,0,0,1,0,0,0,1 @ F,0,0,1,0,0,0,1 @ F,0,0,1,0,0,0,1 @ F,0,0,1,0,0,0,1 @ F,0,0,1,0,0,0,1 @ F,0,0,1,0,0,0,1 @ F,0,0,1,0,0,0,1 @ F,0,0,1,0,0,0,1 @ F,0,0,1,0,0,0,1 @ F,0,0,1,0,0,0,1 @ F,0,0,1,0,0,0,1 @ F,0,0,1,0,0,0,1 @ F,0,0,1,0,5.0589904,0,1 @ F,0,1,1,0,5.7015141,0,1 @ F,0,1,1,0,5.7015141,0,1 @ F,0,0,1,0,0,0,1 @ F,0,0,1,0,0,0,1 @ F,0,0,1,0,0,0,1 @ F,0,0,1,0,0,0,1 @ F,0,0,1,0,0,0,1 @ F,0,0,1,0,0,0,1 @ F,0,0,1,0,0,0,1 @ F,0,0,1,0,0,0,1 @ F,0,0,1,0,0,0,1 @ F,0,0,1,0,0,0,1 @ F,0,0,1,0,0,0,1 @ F,0,0,1,0,0,0,1 @ F,0,0,1,0,0,0,1 @ F,0,0,1,0,0,0,1 @ F,0,0,1,0,0,0,1 @ F,0,0,1,0,0,0,1 @ F,0,0,1,0,0,0,1 @ F,0,0,1,0,0,0,1 @ F,0,0,1,0,0,0,1 @ F,0,0,1,0,0,0,1 @ F,0,0,1,0,0,0,1 @ F,0,0,1,0,0,0,1 @ F,0,0,1,0,0,0,1 @ F,0,0,1,0,0,0,1 @ F,0,0,1,0,0,0,1 @ F,0,0,1,0,0,0,1 @ F,0,0,1,0,0,0,1 @ F,0,0,1,0,0,0,1 @ F,0,0,1,0,0,0,1 @ F,0,0,1,0,0,0,1 @ F,0,0,1,0,0,0,1 @ F,0,0,1,0,0,0,1 @ F,0,0,1,0,0,0,1 @ F,0,0,1,0,0,0,1 @ F,0,0,1,0,0,0,1 @ F,0,0,1,0,0,0,1 @ F,0,0,1,0,0,0,1 @ F,0,0,1,0,0,0,1 @ F,0,0,1,0,0,0,1 @ F,0,0,1,0,0,0,1 @ F,0,0,1,0,0,0,1 @ F,0,0,1,0,0,0,1 @ F,0,0,1,0,0,0,1 @ F,0,0,1,0,0,0,1 @ F,0,0,1,0,0,0,1 @ F,0,0,1,0,0,0,1 @ F,0,0,1,0,0,0,1 @ F,0,0,1,0,0,0,1 @ F,0,0,1,0,0,0,1 @ F,0,0,1,0,0,0,1 @ F,0,0,1,0,0,0,1 @ F,0,0,1,0,0,0,1 @ F,0,0,1,0,0,0,1 @ F,0,0,1,0,0,0,1 @ F,0,0,1,0,0,0,1 @ F,0,0,1,0,0,0,1 @ F,0,0,1,0,0,0,1 @ F,0,0,1,0,0,0,1 @ F,0,0,1,0,0,0,1 @ F,0,0,1,0,0,0,1 @ F,0,0,1,0,0,0,1 @ F,0,0,1,0,0,0,1 @ F,0,0,1,0,0,0,1 @ F,0,0,1,0,0,0,1 @ F,0,0,1,0,0,0,1 @ F,0,0,1,0,0,0,1 @ F,0,0,1,0,0,0,1 @ F,0,0,1,0,0,0,1 @ F,0,0,1,0,0,0,1 @ F,0,0,1,0,0,0,1 @ F,0,0,1,0,0,0,1 @ F,0,0,1,0,0,0,1 @ F,0,0,1,0,0,0,1 @ F,0,0,1,0,0,0,1 @ F,0,0,1,0,0,0,1 @ F,0,0,1,0,0,0,1 @ F,0,0,1,0,0,0,1 @ F,0,0,1,0,0,0,1 @ F,0,0,1,0,0,0,1 @ F,0,0,1,0,0,0,1 @ F,0,0,1,0,0,0,1 @ F,0,0,1,0,0,0,1 @ F,0,0,1,0,0,0,1 @ F,0,0,1,0,0,0,1 @ F,0,0,1,0,0,0,1 @ F,0,0,1,0,0,0,1 @ F,0,0,1,0,0,0,1 @ F,0,0,1,0,0,0,1 @ F,0,0,1,0,0,0,1 | F,0,0,1,0,0,0,1 @ F,0,0,1,0,0,0,1 @ F,0,0,1,0,0,0,1 @ F,0,0,1,0,0,0,1 @ F,0,0,1,0,0,0,1 @ F,0,0,1,0,0,0,1 | F,0,0,1,0,0,0,1 @ F,0,0,1,0,0,0,1 @ F,0,0,1,0,0,0,1 @ F,0,0,1,0,0,0,1 @ F,0,0,1,0,0,0,1 @ F,0,0,1,0,0,0,1 @ F,0,0,1,0,0,0,1 @ F,0,0,1,0,0,0,1 @ F,0,0,1,0,0,0,1 @ F,0,0,1,0,0,0,1 @ F,0,0,1,0,0,0,1 @ F,0,0,1,0,0,0,1 @ F,0,0,1,0,0,0,1 @ F,0,0,1,0,0,0,1 @ F,0,0,1,0,0,0,1 @ F,0,0,1,0,0,0,1 @ F,0,0,1,0,0,0,1 @ F,0,0,1,0,0,0,1 @ F,0,0,1,0,0,0,1 @ F,0,0,1,0,0,0,1 @ F,0,0,1,0,0,0,1 @ F,0,0,1,0,0,0,1 @ F,0,0,1,0,0,0,1 @ F,0,0,1,0,0,0,1 @ F,0,0,1,0,0,0,1 @ F,0,0,1,0,0,0,1 @ F,0,0,1,0,0,0,1 @ F,0,0,1,0,0,0,1 @ F,0,0,1,0,0,0,1 @ F,0,0,1,0,0,0,1 @ F,0,0,1,0,0,0,1 @ F,0,0,1,0,0,0,1 @ F,0,0,1,0,0,0,1 @ F,0,0,1,0,0,0,1 @ F,0,0,1,0,0,0,1 @ F,0,0,1,0,0,0,1"
       radius="0"
       unit="px"
       method="auto"
       mode="F"
       chamfer_steps="1"
       flexible="false"
       use_knot_distance="true"
       apply_no_radius="true"
       apply_with_radius="true"
       only_selected="false"
       hide_knots="false" /></defs><sodipodi:namedview
     id="namedview1"
     pagecolor="#ffffff"
     bordercolor="#000000"
     borderopacity="0.25"
     inkscape:showpageshadow="2"
     inkscape:pageopacity="0.0"
     inkscape:pagecheckerboard="0"
     inkscape:deskcolor="#d1d1d1"
     inkscape:zoom="1.0732422"
     inkscape:cx="452.3676"
     inkscape:cy="485.91082"
     inkscape:window-width="2560"
     inkscape:window-height="1334"
     inkscape:window-x="-11"
     inkscape:window-y="-11"
     inkscape:window-maximized="1"
     inkscape:current-layer="svg1" /><title
     id="title1">ChatGPT Image Apr 8, 2025, 05_48_06 PM</title><style
     id="style1">
		.s0 { fill: #fefefe } 
		.s1 { fill: #1b1a12 } 
		.s2 { fill: #84827c } 
		.s3 { fill: #5e7131 } 
		.s4 { opacity: 1;fill: #475825 } 
		.s5 { fill: #e8a762 } 
		.s6 { fill: #c28041 } 
		.s7 { fill: #9b6629 } 
		.s8 { fill: #f0dcbc } 
		.s9 { fill: #b2b0aa } 
		.s10 { fill: #fafdfe } 
	</style><path
     id="Path 1"
     class="s1"
     d="m 469.5,125.5 c -6.6,0.8 -18.3,2.6 -26,4 -7.7,1.4 -19.9,4.1 -27,6 -7.1,1.9 -18.9,5.4 -26,7.8 -7.1,2.4 -18.2,6.5 -24.5,9.1 -6.3,2.6 -18.5,8.3 -27,12.7 -8.5,4.3 -20.3,10.9 -26.2,14.6 -6,3.8 -14.7,9.6 -19.5,13 -4.9,3.4 -13.7,10.1 -19.8,15 -6.1,4.8 -18.5,16.2 -27.6,25.3 -9.1,9.1 -21,22.1 -26.5,29 -5.5,6.9 -13.6,17.9 -18,24.5 -4.4,6.6 -10.4,16.1 -13.4,21 -2.9,4.9 -8.1,14.6 -11.5,21.5 -3.4,6.9 -8.1,16.8 -10.3,22 -2.2,5.2 -6.1,15.4 -8.7,22.5 -2.6,7.1 -6.7,20.6 -9.1,30 -2.4,9.4 -5.2,22.2 -6.4,28.5 -1.1,6.3 -2.7,16.7 -3.5,23 -0.8,6.3 -2,19.8 -2.6,30 -0.8,13.7 -0.8,23.5 0,38 0.6,10.7 2,25.6 3.1,33 1,7.4 3,19.1 4.4,26 1.4,6.9 4.6,19.7 7.2,28.5 2.5,8.8 7.5,23.4 11.1,32.5 3.6,9.1 10.3,23.9 14.9,33 4.6,9.1 11.4,21.3 15.1,27.2 3.8,6 9.6,14.7 13,19.5 3.4,4.9 10.2,13.8 15,19.8 4.8,6 15.5,17.9 23.8,26.4 8.2,8.4 20.6,20.1 27.5,25.8 6.9,5.8 17,13.8 22.5,17.8 5.5,4 15.2,10.6 21.5,14.6 6.3,3.9 17.8,10.5 25.5,14.5 7.7,4 19.4,9.6 26,12.4 6.6,2.9 18.3,7.3 26,10 7.7,2.6 20.3,6.3 28,8.3 7.7,2 19.2,4.5 25.5,5.7 6.3,1.1 16.9,2.7 23.5,3.6 6.6,0.8 20.8,1.7 31.5,2.1 11.8,0.3 26.2,0.1 36.5,-0.6 9.4,-0.7 22.6,-2.1 29.5,-3.1 6.9,-1.1 18.1,-3.1 25,-4.5 6.9,-1.5 19.3,-4.6 27.5,-7 8.3,-2.3 22.6,-7.3 32,-11 9.4,-3.7 23.1,-9.8 30.5,-13.6 7.4,-3.7 18.5,-9.8 24.5,-13.4 6,-3.7 15.5,-9.9 21,-13.8 5.5,-3.9 14,-10.3 19,-14.3 5,-3.9 14,-11.7 20,-17.1 6,-5.4 15.9,-15.3 21.9,-21.9 6,-6.5 14.4,-16.2 18.6,-21.4 4.1,-5.2 10.9,-14.2 15,-20 4.1,-5.8 11,-16.4 15.3,-23.5 4.3,-7.1 11.2,-19.8 15.2,-28 4.1,-8.3 9.1,-19.5 11.3,-25 2.2,-5.5 5.9,-15.9 8.2,-23 2.3,-7.1 5.7,-19.3 7.6,-27 1.9,-7.7 4.3,-19 5.4,-25 1,-6 2.6,-17.1 3.5,-24.5 0.8,-7.4 1.8,-22 2.1,-32.5 0.4,-11.3 0.2,-25.5 -0.5,-35 -0.6,-8.8 -1.8,-21.4 -2.7,-28 -0.8,-6.6 -2.4,-16.7 -3.5,-22.5 -1.1,-5.8 -3.3,-15.7 -4.9,-22 -1.6,-6.3 -5,-17.8 -7.5,-25.5 -2.6,-7.7 -6.7,-18.9 -9.2,-25 -2.4,-6.1 -7.8,-17.5 -11.8,-25.5 -4,-8 -9.8,-18.8 -13,-24 -3.2,-5.2 -8.5,-13.6 -11.8,-18.5 -3.3,-4.9 -8.7,-12.6 -12,-17 -3.3,-4.4 -9.4,-12.1 -13.6,-17 -4.1,-4.9 -12.9,-14.4 -19.5,-21 -6.7,-6.6 -16.1,-15.4 -21.1,-19.6 -5,-4.1 -12.6,-10.2 -17,-13.6 -4.4,-3.3 -13.9,-9.8 -21,-14.5 -7.1,-4.7 -18.4,-11.5 -25,-15.1 -6.6,-3.7 -18.7,-9.6 -27,-13.3 -8.2,-3.6 -22.9,-9.3 -32.5,-12.5 -9.6,-3.1 -22,-6.9 -27.5,-8.3 -5.5,-1.3 -16.1,-3.6 -23.5,-5 -7.4,-1.4 -18.7,-3.3 -25,-4.2 -8.2,-1.2 -21.2,-1.7 -45.5,-1.9 -24.9,-0.3 -37.2,0 -46,1 z"
     sodipodi:nodetypes="cssssccccssscsssscscccscssccsccscsccscccccccsccscsccsscssscccccssccssssccccsccccsccc"
     style="fill:#000000" /><path
     id="Path 3"
     fill-rule="evenodd"
     class="s0"
     d="m 509.5,145.2 c 6,-0.1 17.5,0.3 25.5,0.8 8,0.5 19.7,1.7 26,2.5 6.3,0.9 17.4,2.7 24.5,4.1 7.1,1.4 19.8,4.5 28,6.9 8.3,2.3 21.3,6.6 29,9.5 7.7,2.8 21.2,8.7 30,13 8.8,4.3 21,10.8 27,14.5 6,3.7 15.3,9.7 20.5,13.4 5.2,3.8 14.7,11 21,16.2 6.3,5.1 16.9,14.8 23.5,21.4 6.6,6.6 15.5,16.1 19.6,21 4.2,5 11.6,14.4 16.4,21 4.8,6.6 11.2,16.1 14.3,21 3,5 8.6,14.6 12.4,21.5 3.7,6.9 9.5,18.8 12.7,26.5 3.3,7.7 8,19.9 10.4,27 2.5,7.1 6.1,19.3 8,27 1.9,7.7 4.5,19.6 5.6,26.5 1.2,6.9 2.8,18.8 3.6,26.5 0.9,8.2 1.5,23.7 1.5,37.5 0,14.4 -0.6,28.6 -1.5,36.5 -0.8,7.1 -1.6,13.1 -1.8,13.3 -0.1,0.1 -4.7,-1.8 -10.2,-4.2 -5.5,-2.4 -15.1,-6.9 -21.3,-10 -6.1,-3.1 -16.3,-8.6 -22.4,-12.3 -6.2,-3.6 -16.5,-10.1 -22.8,-14.4 -6.3,-4.3 -16.5,-11.7 -22.5,-16.4 -6,-4.7 -16.8,-13.8 -23.9,-20.3 -7.1,-6.4 -17.3,-15.5 -22.6,-20.2 -5.4,-4.7 -13.3,-11.1 -17.6,-14.2 -4.3,-3.1 -12.2,-7.9 -26.9,-15.7 l -11.7,-41.3 c -6.4,-22.7 -12.4,-42.7 -13.3,-44.3 -0.9,-1.6 -2.6,-3.7 -3.8,-4.6 -1.3,-1 -4.9,-1.8 -16.2,-2.6 l -3.7,-14.9 c -2.09298,-8.44167 -3.30984,-12.55147 -5.41636,-15.65717 -1.56421,-2.30615 -5.64843,-3.71248 -8.44227,-3.68261 -43.17628,0.46155 -82.70734,-0.40537 -106.55609,1.958 -3.13275,0.31045 -7.46846,2.55314 -8.79605,5.3886 -0.75542,1.61342 -1.55106,3.66968 -2.42816,6.3394 -0.98277,2.99134 -2.37062,7.90592 -3.27949,10.92076 -2.468,8.18667 -2.93155,8.39016 -5.88158,9.23302 -1.9,0.6 -5.3,1.1 -7.5,1.1 -2.6,0 -5,0.8 -6.8,2.3 -2.5,1.9 -3.9,5.8 -12.1,33.7 -5.1,17.3 -10.3,35.3 -13.9,48.5 l -8.6,3.7 c -4.7,2.1 -12.7,6.4 -17.6,9.6 -4.9,3.2 -13.1,9.2 -27,21 l -11.7,-17.3 5.8,-0.3 c 3.8,-0.2 6.5,-0.9 7.7,-2 1,-0.9 1.8,-2.7 1.7,-3.9 0,-1.3 -2.7,-5.4 -6.2,-9.5 -3.4,-4 -8.1,-10.2 -10.4,-13.8 -2.3,-3.6 -5.3,-9 -6.6,-12 -1.4,-3 -3.7,-9.2 -5.1,-13.7 -2.4,-7.3 -3,-8.4 -5.5,-8.9 -1.5,-0.4 -3.4,-0.2 -4.2,0.3 -0.8,0.6 -3.1,5.2 -5.1,10.4 -1.9,5.2 -4.8,12.1 -9.1,21.4 l -4.9,-5.5 c -2.7,-3 -7.1,-8.6 -9.8,-12.5 -2.7,-3.9 -6.4,-9.6 -11.6,-18.7 l 3,0.8 c 1.6,0.4 5.8,0.8 9.1,0.8 4.9,0.1 6.6,-0.3 8.3,-1.9 1.4,-1.3 2.2,-3.2 2.1,-5.2 0,-2.7 -1.5,-4.9 -8,-12 -4.5,-4.9 -10,-11.7 -12.5,-15.3 -2.4,-3.6 -6.2,-10.1 -8.4,-14.5 -2.2,-4.4 -6.4,-15.2 -9.2,-24 -2.9,-8.8 -6,-16.8 -6.8,-17.8 -0.9,-1 -2.7,-1.8 -4.1,-1.8 -1.4,0 -3.2,0.8 -4.2,1.8 -0.9,1 -3.1,6.7 -4.8,12.8 -1.8,6.1 -4.6,14.3 -6.1,18.3 -1.6,3.9 -4.6,10.7 -6.8,15 -2.1,4.2 -6.6,11.3 -9.9,15.7 -3.3,4.4 -8.3,10.1 -11.1,12.8 -2.8,2.6 -5.4,5.7 -5.7,7 -0.3,1.2 -0.1,3.2 0.5,4.5 0.6,1.2 2.2,2.6 3.6,3.2 1.4,0.6 5.7,1 16.5,1 l -3.4,6.8 c -1.8,3.7 -6,10.1 -9.3,14.2 -3.2,4.1 -9,10.2 -12.8,13.5 -3.8,3.3 -8.2,7.4 -9.8,9 -2.2,2.3 -2.8,3.8 -2.5,6.4 0.2,2.3 1.2,4.1 3.1,5.5 2.5,1.8 4.3,2.1 22.5,2.1 l -2.1,3.5 c -1.1,1.9 -4.3,6.9 -7.1,11 -2.7,4.1 -7.3,9.9 -10,12.9 -2.8,2.9 -8.7,8.3 -13.1,12 -4.4,3.6 -8.5,7.3 -9.2,8.1 -0.7,0.8 -1.3,2.7 -1.3,4.3 0,1.5 1,3.7 2.2,5 1.4,1.5 4.6,2.9 8.3,3.7 4.1,1 13.8,1.4 31,1.4 17.8,0 25.6,-0.3 27.2,-1.2 1.8,-0.9 2.3,-0.9 2.3,0.1 0,0.6 -0.5,6.6 -1,13.2 -0.5,6.6 -1,15.1 -1.5,25.7 L 259,533 c -9.6,4.9 -23.1,12.1 -30,16.1 -6.9,3.9 -17.8,10.7 -36,22.9 h -30 l -0.5,-2.7 c -0.3,-1.6 -1.2,-7.5 -2,-13.3 -0.8,-5.8 -1.9,-17.9 -2.6,-27 -0.7,-9.8 -0.9,-24.4 -0.5,-36 0.3,-10.7 1.3,-25.6 2.1,-33 0.9,-7.4 2.9,-20.2 4.6,-28.5 1.6,-8.2 4.1,-19.3 5.6,-24.5 1.4,-5.2 4.7,-15.8 7.4,-23.5 2.6,-7.7 7.7,-20.5 11.2,-28.5 3.6,-8 9.3,-19.7 12.7,-26 3.4,-6.3 10.8,-18.5 16.5,-27 5.7,-8.5 14.3,-20.4 19.1,-26.5 4.8,-6.1 16.2,-18.4 25.3,-27.6 9.2,-9.1 21.5,-20.5 27.6,-25.3 6.1,-4.8 17.3,-12.9 25,-18.1 7.7,-5.1 19.9,-12.5 27,-16.4 7.1,-3.9 19.7,-9.9 28,-13.4 8.2,-3.6 21.3,-8.5 29,-11 7.7,-2.6 19.4,-6 26,-7.6 6.6,-1.7 17.2,-3.9 23.5,-5 6.3,-1.1 17.8,-2.7 25.5,-3.6 7.7,-0.8 16.5,-1.6 19.5,-1.8 3,-0.2 10.4,-0.4 16.5,-0.5 z M 303,487 h 19.7 c 19,0 19.7,0.1 17.6,1.8 -1.3,0.9 -9.4,5.8 -18,10.9 -8.7,5.1 -16.6,9.4 -17.6,9.7 C 303.2,510 303,509 303,498.5 Z M 168,592 h 690 l -0.6,3.2 c -0.3,1.8 -3.2,11.2 -6.4,20.8 -3.2,9.6 -7.9,22.5 -10.5,28.5 -2.6,6 -7.1,15.7 -10.1,21.5 -2.9,5.8 -8.3,15.5 -12,21.5 -3.6,6 -9.6,15.3 -13.2,20.5 -3.7,5.2 -11.1,15.1 -16.6,22 -5.5,6.9 -17.2,19.7 -26.1,28.5 -8.8,8.8 -21.9,20.7 -29,26.5 -7.1,5.7 -19.8,14.8 -28,20.2 -8.3,5.4 -22.4,13.6 -31.5,18.2 -9.1,4.6 -22.8,10.9 -30.5,13.9 -7.7,3 -19.2,7.1 -25.5,9.1 -6.3,1.9 -16.2,4.7 -22,6.1 -5.8,1.4 -15.9,3.4 -22.5,4.6 -6.6,1.1 -18.3,2.7 -26,3.4 -7.7,0.8 -23.3,1.5 -34.8,1.5 -11.9,0 -27,-0.7 -35.5,-1.6 -8.1,-0.8 -20.8,-2.6 -28.2,-4 -7.4,-1.4 -17.1,-3.4 -21.5,-4.5 -4.4,-1.1 -14.3,-4.1 -22,-6.6 -7.7,-2.5 -18.9,-6.5 -25,-9 -6.1,-2.4 -18.4,-8.2 -27.5,-12.8 -9.1,-4.7 -23.9,-13.3 -33,-19.4 -9.1,-6 -20.8,-14.3 -26,-18.5 -5.2,-4.2 -14.8,-12.5 -21.4,-18.4 -6.5,-5.9 -16.5,-15.9 -22.2,-22.2 -5.7,-6.3 -14,-16.2 -18.5,-22 -4.5,-5.8 -11.4,-15.5 -15.4,-21.5 -4,-6 -10.4,-16.4 -14.1,-23 -3.8,-6.6 -9.6,-18.1 -13,-25.5 -3.4,-7.4 -7.7,-17.8 -9.7,-23 -1.9,-5.2 -5.1,-14.7 -7,-21 -1.9,-6.3 -3.7,-12.7 -4.1,-14.3 z"
     sodipodi:nodetypes="cscsccssccscsccccsccscssccssccsccscccccccsccccsccccccscccccccscccccccsccsccccscccscccsccccccccssccscssccccccscccccccssscscscccscsccscccsccccsscccscccsscsccscssscccscssscscscc"
     inkscape:path-effect="#path-effect1"
     inkscape:original-d="m 509.5,145.2 c 6,-0.1 17.5,0.3 25.5,0.8 8,0.5 19.7,1.7 26,2.5 6.3,0.9 17.4,2.7 24.5,4.1 7.1,1.4 19.8,4.5 28,6.9 8.3,2.3 21.3,6.6 29,9.5 7.7,2.8 21.2,8.7 30,13 8.8,4.3 21,10.8 27,14.5 6,3.7 15.3,9.7 20.5,13.4 5.2,3.8 14.7,11 21,16.2 6.3,5.1 16.9,14.8 23.5,21.4 6.6,6.6 15.5,16.1 19.6,21 4.2,5 11.6,14.4 16.4,21 4.8,6.6 11.2,16.1 14.3,21 3,5 8.6,14.6 12.4,21.5 3.7,6.9 9.5,18.8 12.7,26.5 3.3,7.7 8,19.9 10.4,27 2.5,7.1 6.1,19.3 8,27 1.9,7.7 4.5,19.6 5.6,26.5 1.2,6.9 2.8,18.8 3.6,26.5 0.9,8.2 1.5,23.7 1.5,37.5 0,14.4 -0.6,28.6 -1.5,36.5 -0.8,7.1 -1.6,13.1 -1.8,13.3 -0.1,0.1 -4.7,-1.8 -10.2,-4.2 -5.5,-2.4 -15.1,-6.9 -21.3,-10 -6.1,-3.1 -16.3,-8.6 -22.4,-12.3 -6.2,-3.6 -16.5,-10.1 -22.8,-14.4 -6.3,-4.3 -16.5,-11.7 -22.5,-16.4 -6,-4.7 -16.8,-13.8 -23.9,-20.3 -7.1,-6.4 -17.3,-15.5 -22.6,-20.2 -5.4,-4.7 -13.3,-11.1 -17.6,-14.2 -4.3,-3.1 -12.2,-7.9 -26.9,-15.7 l -11.7,-41.3 c -6.4,-22.7 -12.4,-42.7 -13.3,-44.3 -0.9,-1.6 -2.6,-3.7 -3.8,-4.6 -1.3,-1 -4.9,-1.8 -16.2,-2.6 l -3.7,-14.9 c -3,-12.1 -4.2,-15.3 -8.8,-19.4 -48.77565,0.64212 -93.54677,-0.61422 -117.27589,2.68353 -2.2,2.1 -4.22411,6.01647 -7.22411,16.51647 -4,13.6 -4,13.7 -7.5,14.7 -1.9,0.6 -5.3,1.1 -7.5,1.1 -2.6,0 -5,0.8 -6.8,2.3 -2.5,1.9 -3.9,5.8 -12.1,33.7 -5.1,17.3 -10.3,35.3 -13.9,48.5 l -8.6,3.7 c -4.7,2.1 -12.7,6.4 -17.6,9.6 -4.9,3.2 -13.1,9.2 -27,21 l -11.7,-17.3 5.8,-0.3 c 3.8,-0.2 6.5,-0.9 7.7,-2 1,-0.9 1.8,-2.7 1.7,-3.9 0,-1.3 -2.7,-5.4 -6.2,-9.5 -3.4,-4 -8.1,-10.2 -10.4,-13.8 -2.3,-3.6 -5.3,-9 -6.6,-12 -1.4,-3 -3.7,-9.2 -5.1,-13.7 -2.4,-7.3 -3,-8.4 -5.5,-8.9 -1.5,-0.4 -3.4,-0.2 -4.2,0.3 -0.8,0.6 -3.1,5.2 -5.1,10.4 -1.9,5.2 -4.8,12.1 -9.1,21.4 l -4.9,-5.5 c -2.7,-3 -7.1,-8.6 -9.8,-12.5 -2.7,-3.9 -6.4,-9.6 -11.6,-18.7 l 3,0.8 c 1.6,0.4 5.8,0.8 9.1,0.8 4.9,0.1 6.6,-0.3 8.3,-1.9 1.4,-1.3 2.2,-3.2 2.1,-5.2 0,-2.7 -1.5,-4.9 -8,-12 -4.5,-4.9 -10,-11.7 -12.5,-15.3 -2.4,-3.6 -6.2,-10.1 -8.4,-14.5 -2.2,-4.4 -6.4,-15.2 -9.2,-24 -2.9,-8.8 -6,-16.8 -6.8,-17.8 -0.9,-1 -2.7,-1.8 -4.1,-1.8 -1.4,0 -3.2,0.8 -4.2,1.8 -0.9,1 -3.1,6.7 -4.8,12.8 -1.8,6.1 -4.6,14.3 -6.1,18.3 -1.6,3.9 -4.6,10.7 -6.8,15 -2.1,4.2 -6.6,11.3 -9.9,15.7 -3.3,4.4 -8.3,10.1 -11.1,12.8 -2.8,2.6 -5.4,5.7 -5.7,7 -0.3,1.2 -0.1,3.2 0.5,4.5 0.6,1.2 2.2,2.6 3.6,3.2 1.4,0.6 5.7,1 16.5,1 l -3.4,6.8 c -1.8,3.7 -6,10.1 -9.3,14.2 -3.2,4.1 -9,10.2 -12.8,13.5 -3.8,3.3 -8.2,7.4 -9.8,9 -2.2,2.3 -2.8,3.8 -2.5,6.4 0.2,2.3 1.2,4.1 3.1,5.5 2.5,1.8 4.3,2.1 22.5,2.1 l -2.1,3.5 c -1.1,1.9 -4.3,6.9 -7.1,11 -2.7,4.1 -7.3,9.9 -10,12.9 -2.8,2.9 -8.7,8.3 -13.1,12 -4.4,3.6 -8.5,7.3 -9.2,8.1 -0.7,0.8 -1.3,2.7 -1.3,4.3 0,1.5 1,3.7 2.2,5 1.4,1.5 4.6,2.9 8.3,3.7 4.1,1 13.8,1.4 31,1.4 17.8,0 25.6,-0.3 27.2,-1.2 1.8,-0.9 2.3,-0.9 2.3,0.1 0,0.6 -0.5,6.6 -1,13.2 -0.5,6.6 -1,15.1 -1.5,25.7 L 259,533 c -9.6,4.9 -23.1,12.1 -30,16.1 -6.9,3.9 -17.8,10.7 -36,22.9 h -30 l -0.5,-2.7 c -0.3,-1.6 -1.2,-7.5 -2,-13.3 -0.8,-5.8 -1.9,-17.9 -2.6,-27 -0.7,-9.8 -0.9,-24.4 -0.5,-36 0.3,-10.7 1.3,-25.6 2.1,-33 0.9,-7.4 2.9,-20.2 4.6,-28.5 1.6,-8.2 4.1,-19.3 5.6,-24.5 1.4,-5.2 4.7,-15.8 7.4,-23.5 2.6,-7.7 7.7,-20.5 11.2,-28.5 3.6,-8 9.3,-19.7 12.7,-26 3.4,-6.3 10.8,-18.5 16.5,-27 5.7,-8.5 14.3,-20.4 19.1,-26.5 4.8,-6.1 16.2,-18.4 25.3,-27.6 9.2,-9.1 21.5,-20.5 27.6,-25.3 6.1,-4.8 17.3,-12.9 25,-18.1 7.7,-5.1 19.9,-12.5 27,-16.4 7.1,-3.9 19.7,-9.9 28,-13.4 8.2,-3.6 21.3,-8.5 29,-11 7.7,-2.6 19.4,-6 26,-7.6 6.6,-1.7 17.2,-3.9 23.5,-5 6.3,-1.1 17.8,-2.7 25.5,-3.6 7.7,-0.8 16.5,-1.6 19.5,-1.8 3,-0.2 10.4,-0.4 16.5,-0.5 z M 303,487 h 19.7 c 19,0 19.7,0.1 17.6,1.8 -1.3,0.9 -9.4,5.8 -18,10.9 -8.7,5.1 -16.6,9.4 -17.6,9.7 C 303.2,510 303,509 303,498.5 Z M 168,592 h 690 l -0.6,3.2 c -0.3,1.8 -3.2,11.2 -6.4,20.8 -3.2,9.6 -7.9,22.5 -10.5,28.5 -2.6,6 -7.1,15.7 -10.1,21.5 -2.9,5.8 -8.3,15.5 -12,21.5 -3.6,6 -9.6,15.3 -13.2,20.5 -3.7,5.2 -11.1,15.1 -16.6,22 -5.5,6.9 -17.2,19.7 -26.1,28.5 -8.8,8.8 -21.9,20.7 -29,26.5 -7.1,5.7 -19.8,14.8 -28,20.2 -8.3,5.4 -22.4,13.6 -31.5,18.2 -9.1,4.6 -22.8,10.9 -30.5,13.9 -7.7,3 -19.2,7.1 -25.5,9.1 -6.3,1.9 -16.2,4.7 -22,6.1 -5.8,1.4 -15.9,3.4 -22.5,4.6 -6.6,1.1 -18.3,2.7 -26,3.4 -7.7,0.8 -23.3,1.5 -34.8,1.5 -11.9,0 -27,-0.7 -35.5,-1.6 -8.1,-0.8 -20.8,-2.6 -28.2,-4 -7.4,-1.4 -17.1,-3.4 -21.5,-4.5 -4.4,-1.1 -14.3,-4.1 -22,-6.6 -7.7,-2.5 -18.9,-6.5 -25,-9 -6.1,-2.4 -18.4,-8.2 -27.5,-12.8 -9.1,-4.7 -23.9,-13.3 -33,-19.4 -9.1,-6 -20.8,-14.3 -26,-18.5 -5.2,-4.2 -14.8,-12.5 -21.4,-18.4 -6.5,-5.9 -16.5,-15.9 -22.2,-22.2 -5.7,-6.3 -14,-16.2 -18.5,-22 -4.5,-5.8 -11.4,-15.5 -15.4,-21.5 -4,-6 -10.4,-16.4 -14.1,-23 -3.8,-6.6 -9.6,-18.1 -13,-25.5 -3.4,-7.4 -7.7,-17.8 -9.7,-23 -1.9,-5.2 -5.1,-14.7 -7,-21 -1.9,-6.3 -3.7,-12.7 -4.1,-14.3 z"
     style="fill:#e9ddaf" /><path
     id="Path 5"
     class="s4"
     d="m 555.8,424.6 c -1.65692,2.30553 13.10852,15.22772 14.43526,17.17063 3.29856,4.83051 6.99372,11.81512 9.58235,12.79414 1.6,2.4 3.43529,5.54701 4.33529,8.34701 1.5,4.3 1.00586,4.79997 -0.19414,8.29997 -0.7,2.2 -2.05876,6.68825 -4.65876,9.58825 -2.9,3.3 -6.9,6.4 -10.3,8 -3,1.4 -5.7,2.9 -6,3.2 -0.3,0.3 -3.8,2.8 -7.9,5.5 -5.4,3.7 -11.2,9.3 -21.6,21 -7.8,8.8 -18.5,20 -23.7,25 -5.2,5 -12.8,11.3 -16.9,14.2 -4.1,2.8 -9.4,7 -11.9,9.2 -2.5,2.3 -4.1,4.1 -3.5,4.1 0.6,0 0.3,0.5 -0.5,1 -1,0.7 23.8,1 72.8,1 40.8,0 74.2,-0.3 74.1,-0.7 0,-0.5 -3.4,-3.7 -7.4,-7.3 -4.1,-3.6 -14.1,-12.8 -22.2,-20.5 -8.2,-7.7 -17,-15.4 -19.5,-17 -2.6,-1.6 -4.7,-3.2 -4.8,-3.5 0,-0.3 2.4,-0.2 5.3,0.1 2.8,0.3 7,1.2 9.2,1.9 2.2,0.7 7.1,2.9 10.9,4.9 3.9,2 12.3,8.2 19,14 6.7,5.7 14.4,12.1 17.1,14.2 2.8,2.1 8.8,6.1 13.5,8.9 l 8.5,5.1 98,-0.3 C 739.1,567 731.2,562.5 726,559 c -5.2,-3.5 -13.1,-9.1 -17.5,-12.6 -4.4,-3.4 -12.3,-10.2 -17.6,-15.1 -5.3,-4.8 -16.6,-16 -25,-24.7 -8.5,-8.8 -19.9,-19.9 -25.4,-24.8 -5.5,-5 -14,-11.7 -19,-15 l -9,-6.1 c 7.8,1.1 12.3,2.1 15,3 2.8,0.8 8.6,3.4 13,5.7 4.4,2.2 11.4,6.6 15.5,9.7 4.1,3 17.2,14.9 29,26.4 11.8,11.4 25.5,24.1 30.5,28 5,4 13.3,10 18.5,13.4 5.2,3.4 14.5,8.6 20.5,11.6 6,2.9 14.8,6.7 19.5,8.3 4.7,1.7 12.1,3.7 16.5,4.6 6.7,1.4 13.4,1.6 40.3,1.4 31.4,-0.3 32.2,-0.3 32.2,-2.3 0.1,-1.6 -2,-2.8 -10.7,-6.4 -5.9,-2.4 -17.8,-7.8 -26.3,-12.1 -8.5,-4.3 -19.8,-10.3 -25,-13.5 -5.2,-3.1 -13.5,-8.4 -18.5,-11.8 -5,-3.3 -11.7,-8.1 -15,-10.6 -3.3,-2.4 -10.9,-8.6 -17,-13.5 -6,-5 -19,-16.2 -29,-24.9 -9.9,-8.8 -21.8,-18.8 -26.5,-22.3 -4.7,-3.5 -12.8,-8.6 -18,-11.3 -5.2,-2.7 -14.3,-6.5 -20.2,-8.5 -6,-2 -17.4,-4.9 -25.5,-6.5 -8.2,-1.7 -19.1,-3.5 -24.3,-4.1 -5.2,-0.5 -18,-1.3 -28.5,-1.6 -15.4,-0.5 -21.6,0.1 -22.7,1.2 z"
     sodipodi:nodetypes="cscccccsccsccscsccccccsccccccscccccccccccsccccccscccccssccccc" /><path
     id="Path 7"
     class="s6"
     d="m 509.7,310.7 c -1.82511,6.82534 -4.60649,14.64136 -6.3,20.6 19.29141,0.90047 40.85837,0.52851 61,-0.5 l -0.9,-16.3 -0.2,-4.5 c -41.2,-0.4 -53.4,0.3 -53.6,0.7 z m -29.2,35.8 c -1.71977,4.22141 -3.66714,9.7392 -3.7,14.1 0.5,0.9 30.5,0.7 89.5,1 L 566.55888,350.15882 564.8,344.9 c -79.3,0 -83.12766,0.1835 -84.3,1.6 z m -6.6,28.6 c -5.66959,1.33544 -1.91569,8.48621 -12.1,35.8 -0.7,1.9 -0.5,2.1 2,1.7 1.5,-0.3 7,-1.1 12.2,-2 5.2,-0.8 15.1,-2 22,-2.7 6.9,-0.6 26.9,-1.2 44.5,-1.2 15.91148,0.45954 55.93406,2.61965 58.25351,-4.9197 C 601.80079,398.37612 569.2628,391.87986 568.5,384.3 l -0.7,-9.3 c -46.9,0.1 -92.6,-0.2 -93.9,0.1 z"
     sodipodi:nodetypes="ccccccccccccccccccsccc" /><path
     id="Path 8"
     class="s7"
     d="m 563.7,320.2 c 0.3,5.7 0.6,10.4 0.7,10.6 0,0.1 11.6,0.5 25.6,0.9 15.4,0.4 25.8,0.3 26.2,-0.3 0.4,-0.5 -0.5,-5.4 -2,-10.9 l -2.8,-10 -48.1,-0.5 z m 1.79023,33.00781 c 0.4,4.5 0.7,8.3 0.8,8.4 0.1,0.2 16.90977,0.29219 37.40977,0.29219 21.9,0.1 37.8,-0.3 38.5,-0.8 l -5.3,-16.2 H 564.8 Z M 568.4,384.2 c 1.4936,12.77958 -3.378,23.54379 11.8,23.8 2.9,0 9.9,0.4 15.7,1 5.8,0.6 16.4,2 23.5,3.1 7.2,1.2 18.4,3.5 25,5.1 6.6,1.6 12.9,3.1 14,3.2 1.7,0.2 1.9,-0.1 1.2,-2.3 -0.4,-1.4 -2,-6.9 -3.6,-12.1 l -2.8,-9.5 c -23.9,-1.1 -37.1,-2.1 -44.8,-3 -7.7,-0.8 -15.3,-1.9 -17,-2.4 -2,-0.6 6.7,-1 25.5,-1.1 15.7,-0.1 29.8,-0.2 31.3,-0.1 3.90071,0.4577 -0.31176,-11.93527 -1.3,-14.9 h -79.1 z"
     sodipodi:nodetypes="ccccccccccccccccsscsccccccccccc" /><path
     id="Path 22"
     class="s5"
     d="m 387.5,210 c -2.8,0.5 -7.3,1.7 -10,2.5 -2.8,0.9 -7.5,3.1 -10.5,4.8 -3,1.7 -8.7,6.2 -12.6,10.1 -4.9,4.9 -8.3,9.4 -10.8,14.4 -2,3.9 -4.3,10 -5.1,13.4 -0.8,3.5 -1.5,9.4 -1.5,13.3 0,3.9 0.9,10.6 2,15 1.2,4.4 3.5,10.7 5.3,14 1.8,3.3 6.3,9.2 10.2,13 4.4,4.5 9.6,8.4 14,10.7 3.9,2 9.7,4.3 13,5.2 3.3,0.9 10,1.6 15,1.6 5,0 11.7,-0.7 15,-1.6 3.3,-0.9 8.3,-2.7 11,-4.1 2.8,-1.4 7.4,-4.4 10.4,-6.7 2.9,-2.2 7.6,-7 10.2,-10.6 2.7,-3.6 6.3,-10.1 8,-14.5 2.3,-6 3.2,-10.2 3.6,-17 0.3,-4.9 0,-12.1 -0.6,-16 -0.6,-4 -2.8,-10.4 -4.9,-15 -2.5,-5.2 -6,-10.3 -9.9,-14.5 -3.3,-3.6 -8.9,-8.2 -12.4,-10.3 -3.5,-2.1 -9.3,-4.7 -12.9,-5.7 -3.6,-1.1 -9.9,-2.2 -14,-2.5 -4.1,-0.2 -9.7,0 -12.5,0.5 z" /><path
     id="Path 23"
     class="s8"
     d="m 671.5,223.9 c -2.2,0.5 -6.7,2.1 -9.9,3.7 -3.9,1.9 -7.8,5 -11.5,9.1 l -5.6,6.2 c -8.3,-2.6 -11.9,-3 -15.5,-2.7 -3,0.3 -7.3,1.4 -9.5,2.5 -2.2,1.2 -5.7,3.9 -7.8,6.2 -2,2.2 -4.4,5.8 -5.2,7.8 l -1.5,3.8 c -18.6,0 -20,0.3 -24.3,2.7 -2.6,1.6 -5.6,4.2 -6.7,5.8 -1.1,1.6 -2,3.7 -2,4.5 0,1.3 10.2,1.5 85.5,1.5 47,0 85.5,-0.1 85.5,-0.3 0,-0.1 -0.6,-2.5 -1.5,-5.2 -0.9,-3.2 -2.8,-6.3 -5.2,-8.7 -2.1,-2 -5.5,-4.4 -7.5,-5.3 -2.1,-0.8 -6,-1.5 -8.8,-1.5 h -5 c -5.4,-11.6 -8.9,-17.1 -11.2,-19.6 -2.4,-2.5 -7,-5.9 -10.3,-7.5 -3.8,-1.9 -8.2,-3.1 -12,-3.3 -3.3,-0.3 -7.8,-0.1 -10,0.3 z" /><path
     id="Path 4"
     class="s3"
     d="m 288,321.3 c 0,0.6 -2.4,5.3 -5.4,10.2 -2.9,4.9 -6.1,11.7 -7,15 -1.2,4.6 -1.3,6.1 -0.3,6.4 0.6,0.3 2.2,1.5 3.5,2.8 1.3,1.3 2.2,3.5 2.2,5.3 0,1.6 -2.1,7.2 -4.6,12.2 -2.6,5.1 -6.5,12.2 -8.8,15.8 -2.3,3.6 -7,9.4 -10.4,13 -3.4,3.6 -6.1,6.7 -6.2,7 0,0.3 3,0.5 6.6,0.5 5.9,0 6.8,0.3 9,2.7 1.5,1.8 2.4,4 2.4,6 -0.1,2.1 -2,6.7 -5.2,12.3 -2.8,4.9 -7.4,12.4 -10.1,16.5 -2.8,4.1 -9,11.5 -13.7,16.3 l -8.5,8.8 c 43,-0.1 43.6,0 45.8,2.1 2.1,2.1 1.35597,3.26775 1.55597,13.26775 -1.64624,23.07512 -1.6091,22.43576 -2.35597,36.73225 0.2,0.2 4.8,-2.3 7.5,-3.7 l 5,-2.5 c 0,-153.5 -0.2,-198 -0.5,-198 -0.3,0 -0.5,0.6 -0.5,1.2 z m 66.8,90.5 c -1.8,3.2 -4.7,7.7 -6.5,10 l -3.3,4.3 c 3.9,3.9 5.3,6 5.6,7.2 0.3,1.3 0.1,3.4 -0.4,4.8 -0.5,1.4 -3.7,6.2 -7.1,10.7 l -6.1,8.3 c 6.6,8 11.2,12.7 14.5,15.6 3.3,2.9 6.3,5.3 6.7,5.4 0.5,0 0.8,-16.2 0.8,-36 0,-19.8 -0.2,-36 -0.4,-36 -0.3,0 -2,2.6 -3.8,5.7 z m 151.2,11 c -2.5,0.2 -10.1,1 -17,1.9 -6.9,0.8 -17.4,2.7 -23.5,4.1 -6.1,1.4 -14.6,4.2 -19,6.2 -4.4,2.1 -13.9,7.7 -21,12.5 -7.1,4.9 -19.1,13.6 -26.5,19.5 -7.4,5.9 -18.7,14.6 -25,19.3 -6.3,4.7 -16.7,11.9 -23,16 -6.3,4.2 -16.7,10.5 -23,14 -6.3,3.6 -20.3,10.9 -31,16.3 -10.7,5.4 -26.7,13.6 -35.5,18.3 -8.8,4.7 -19.8,10.9 -24.5,13.8 -4.7,2.9 -9.3,5.9 -10.3,6.6 -1.4,1.1 18,1.3 114.5,1.2 64,0 120.9,-0.2 126.5,-0.2 5.7,-0.1 10.2,-0.6 10.1,-1 -0.2,-0.5 1.5,-2.5 3.7,-4.6 2.2,-2.1 7.3,-6.1 11.4,-9 4.1,-2.8 11.7,-9.1 16.9,-14.1 5.2,-5 15.9,-16.2 23.7,-25 10.4,-11.7 16.2,-17.3 21.6,-21 4.1,-2.8 7.6,-5.2 7.9,-5.5 0.3,-0.3 3,-1.8 6,-3.2 3.4,-1.6 7.4,-4.7 10.3,-8 2.6,-2.9 5.4,-7.1 6.1,-9.3 1.2,-3.5 1.2,-4.7 -0.3,-9 -0.9,-2.8 -2.9,-7.1 -4.5,-9.5 -1.65075,-2.46864 -5.9,-8.1 -9.5,-12.4 -4.32339,-4.65935 -14.0486,-16.27926 -15.3,-16.1 -1.3,0.3 -9.3,4 -17.8,8.3 -8.5,4.2 -21.1,11.4 -28,16 -6.9,4.6 -16.7,11.8 -21.9,16 -5.2,4.2 -15.5,13.8 -22.9,21.2 -11.2,11.3 -13.3,13 -12.7,10.5 0.3,-1.6 2.8,-7.5 5.5,-13 2.7,-5.5 7.7,-13.7 11.2,-18.3 3.5,-4.5 10.1,-11.4 14.8,-15.3 4.7,-3.9 12.8,-10 18,-13.5 5.2,-3.4 13,-8.1 17.3,-10.4 l 7.7,-4 c -12.8,0.3 -18.5,0.5 -21,0.7 z"
     sodipodi:nodetypes="scccsscsscsccsccccccccsssccccsccscsscscsccssccsssccccscsccscccccsccssccscscccs" /><path
     id="Path 12"
     class="s1"
     d="m 486,390 c 0,0.6 6.5,1 17.8,0.9 9.7,-0.1 22.9,-0.5 29.2,-0.9 8.9,-0.5 5,-0.7 -17.8,-0.8 -18.9,-0.1 -29.2,0.2 -29.2,0.8 z m -50,81 c -3,1.1 -8.6,4.1 -12.4,6.8 -3.9,2.6 -10.4,7.9 -14.5,11.8 -4.2,3.9 -13.1,13.1 -19.8,20.5 -6.7,7.4 -16.8,17.5 -22.5,22.6 -5.7,5.1 -13.2,11.4 -16.8,14 -3.5,2.6 -9.8,6.7 -14,9.1 -7.2,4 -7.4,4.2 -4,4.2 1.9,0 6.2,-0.7 9.5,-1.5 3.3,-0.7 9.1,-2.7 13,-4.3 3.9,-1.6 9.7,-4.6 13,-6.6 3.3,-2 9.6,-6.4 13.9,-9.9 4.3,-3.4 11,-9.6 14.9,-13.7 3.8,-4.1 13.1,-14.9 20.5,-24 7.5,-9.1 16.4,-19.8 19.9,-23.8 3.5,-3.9 6,-7.2 5.6,-7.2 -0.4,0.1 -3.3,1 -6.3,2 z m 212.8,150.8 c -2.6,0.9 -6.8,3.2 -9.3,4.9 -2.5,1.8 -5.9,5.2 -7.6,7.5 -1.6,2.4 -4,7.4 -5.1,11.3 -1.6,5.5 -2,8.7 -1.6,15 0.4,5.8 1.2,9.7 3.2,14 1.8,3.9 4.6,7.7 7.9,10.8 3.1,2.9 7.4,5.6 10.7,6.8 3,1.2 8.4,2.3 12,2.6 4.4,0.4 8.6,0 13,-1.1 3.6,-0.9 8.9,-3.2 11.7,-5.1 3.1,-2.1 6.7,-5.7 8.8,-8.8 1.9,-2.8 4.2,-8.1 5.1,-11.7 1.1,-4.5 1.5,-8.7 1.1,-13.5 -0.3,-3.9 -1.3,-9 -2.3,-11.5 -0.9,-2.5 -3,-6.4 -4.6,-8.8 -1.5,-2.3 -4.7,-5.6 -7.1,-7.2 -2.3,-1.7 -6.6,-4 -9.5,-5 -3.7,-1.4 -7.6,-2 -13.5,-2 -5.1,0.1 -9.9,0.7 -12.9,1.8 z m 75.3,-0.4 c -1.9,0.6 -5.4,2.8 -7.8,4.8 -2.8,2.5 -4.6,5.1 -5.3,7.5 -0.5,2.1 -1,5.8 -1,8.3 0,2.5 0.9,6.4 2,8.7 1.4,3.1 3.3,5.1 6.7,7 2.7,1.5 8.2,3.7 12.3,4.9 4.1,1.1 8.5,2.6 9.7,3.3 1.3,0.6 3,2.1 3.8,3.3 0.8,1.3 1.5,3.1 1.5,4 0,1 -1.3,3.2 -2.9,4.8 -2.6,2.6 -3.7,3 -8.3,3 -5.1,0 -5.5,-0.3 -9.8,-4.9 l -4.5,-4.9 c -8.5,2.6 -11.6,3.7 -12.3,4.1 -0.9,0.5 -0.9,1.4 -0.2,3.4 0.5,1.6 2.5,4.6 4.2,6.7 1.8,2.1 5.5,5 8.3,6.4 3.4,1.7 7.3,2.6 12.5,3 5.4,0.3 8.9,0 12.5,-1.1 2.7,-0.9 6.5,-3.1 8.4,-4.9 1.9,-1.8 4.2,-5.1 5.2,-7.3 1,-2.2 1.9,-6.3 1.9,-9 0,-2.9 -0.9,-6.8 -2,-9.3 -1.5,-3.1 -3.3,-4.9 -7.3,-7.2 -2.8,-1.6 -8.3,-3.7 -12.2,-4.6 -3.9,-0.9 -8.1,-2.2 -9.5,-2.9 -1.4,-0.7 -3.2,-2.1 -4,-3 -0.8,-1 -1.4,-3.2 -1.3,-4.9 0.1,-1.9 1.2,-4 2.7,-5.4 1.7,-1.4 3.9,-2.2 6.1,-2.2 1.9,0 4.7,0.6 6.1,1.2 1.4,0.7 3.4,2.8 4.5,4.5 1.6,2.8 2.3,3.2 4.6,2.6 1.6,-0.3 4.6,-1.1 6.8,-1.8 3.4,-1 4,-1.5 3.7,-3.6 -0.1,-1.3 -1.5,-4.2 -3,-6.4 -1.7,-2.6 -4.7,-5 -8.2,-6.8 -4.7,-2.3 -6.7,-2.7 -13,-2.6 -4.1,0.1 -9,0.6 -10.9,1.3 z m -454,0.4 c -1.2,0.7 -1.4,6.4 -1,36.3 l 0.4,35.4 h 45 L 315,680 c -5,-0.9 -11.8,-1 -18.3,-0.8 l -11.7,0.3 c 0,-53.4 -0.2,-57.6 -1.5,-58 -0.8,-0.3 -3.9,-0.5 -6.8,-0.5 -2.8,0 -5.8,0.4 -6.6,0.8 z m 108.1,-0.1 -17.2,0.3 0.5,71.5 h 44 v -13 L 376,680 v -17 c 15.9,0.1 21.7,0.1 23.3,0.1 2.6,-0.1 2.7,-0.2 2.7,-6.1 0,-4.1 -0.4,-6 -1.3,-6.1 h -13 L 376,651 v -16 l 28.5,-0.5 v -13 c -7,-0.1 -16.8,0 -26.3,0.2 z m 105.3,0.7 c -0.3,0.8 -0.4,12.9 -0.3,26.8 0.3,24.5 0.4,25.5 2.8,30.7 1.4,3.1 4.2,6.9 6.5,8.8 2.2,1.9 6.3,4 9,4.9 2.8,0.8 7.9,1.4 11.5,1.4 3.6,0 8.5,-0.7 11,-1.5 2.5,-0.8 6.3,-3 8.4,-4.7 2.1,-1.8 4.7,-5 5.7,-7.1 1.1,-2 2.3,-6.5 2.8,-10 0.5,-3.4 1,-16 1,-28 L 542,622 c -3.5,-0.9 -6.8,-1 -9.5,-0.8 l -5,0.3 c -1,46.1 -1.3,50.5 -2.8,53.2 -0.9,1.8 -3.1,4 -4.7,4.8 -1.6,0.8 -5,1.5 -7.5,1.5 -2.5,0 -5.9,-0.7 -7.5,-1.5 -1.6,-0.8 -3.8,-3 -4.7,-4.8 -1.5,-2.7 -1.9,-7 -2.3,-28.2 l -0.5,-25 c -12,-0.5 -13.6,-0.3 -14,0.9 z m 70.6,-0.6 c -1.1,0.6 -1,1.8 0.7,6.7 1.1,3.3 6.6,19 12.2,35 5.6,16 10.7,29.3 11.4,29.8 0.6,0.4 4.7,0.6 9.1,0.5 l 8,-0.3 c 18.9,-54.3 24.2,-70.6 24,-71.3 -0.3,-0.7 -2.6,-1.2 -6.2,-1.2 -3.2,0 -6.5,0.5 -7.4,1.2 -0.8,0.7 -2.5,4.4 -3.6,8.3 -1.2,3.9 -4.9,15.7 -8.2,26.2 -3.4,10.6 -6.6,19.3 -7.1,19.3 -0.5,0 -1.6,-1.2 -2.4,-2.8 -0.8,-1.5 -4.8,-13.5 -9,-26.7 -4.2,-13.2 -8.2,-24.3 -8.9,-24.7 -0.6,-0.4 -3.4,-0.8 -6.2,-0.8 -2.7,0 -5.6,0.4 -6.4,0.8 z M 328,658 v 36 h 15 v -72 h -15 z m 90,-29.5 c 0,4.9 0.4,6.6 1.5,7 0.8,0.3 5.1,0.5 9.5,0.5 h 8 v 58 h 15 V 635.5 L 470.1697,635.26706 470,622 h -52 z m -128.9,89.6 c -1.2,1.1 -1.5,5.1 -1.3,23.1 0.1,12 0.4,22.5 0.7,23.3 0.3,1 1.9,1.5 5,1.5 h 4.5 l 0.5,-15.5 c 10.3,-0.9 14.5,-1.9 16.5,-3.1 1.9,-1.1 4.3,-3.5 5.2,-5.4 1,-1.9 1.8,-5.3 1.8,-7.5 0,-2.2 -1,-6 -2.2,-8.5 -1.7,-3.2 -3.4,-5.1 -6.3,-6.4 -2.8,-1.4 -6.9,-2.1 -13.5,-2.4 -6.9,-0.3 -9.9,0 -10.9,0.9 z m 42.9,0.3 c -0.3,0.2 -0.4,11.3 -0.2,24.5 l 0.2,24.1 9.5,-0.5 v -48 c -7,-0.5 -9.3,-0.4 -9.5,-0.1 z m 22,23.6 v 24 h 30 L 383.5,757.5 364,757 v -39 h -10 z m 38.6,-22.8 c -0.2,0.7 -0.3,11.7 -0.3,24.3 l 0.2,23 h 10 v -48 c -8,-0.5 -9.6,-0.2 -9.9,0.7 z m 33,6 c -1.4,4 -5.2,14.8 -8.4,24 l -5.7,16.7 10.5,0.1 2.7,-8.5 c 16.1,-0.5 17.4,-0.3 17.9,1.2 0.3,1 1.1,3.1 1.7,4.6 1.1,2.6 1.6,2.8 6.5,2.7 h 5.2 c -3.3,-8.9 -7,-19.6 -10.4,-29.5 l -6.2,-18 -11.1,-0.6 z m 38.9,-5.9 c -0.2,0.7 -0.3,11.4 -0.2,23.7 l 0.1,22.5 10.5,0.5 c 0,-17.5 0.3,-19.9 1.3,-19.7 0.7,0.2 4.6,4.7 8.7,10.1 l 7.5,9.7 c 9.7,-0.1 12.5,-0.3 12.5,-0.6 0,-0.3 -4.2,-5.8 -9.5,-12.2 -5.2,-6.5 -9.5,-12.2 -9.5,-12.8 0,-0.5 3.8,-5.4 8.5,-10.7 4.7,-5.4 8.5,-10.2 8.5,-10.8 0,-0.6 -2.6,-1 -6,-1 h -6 L 475.4,737.4 475,718 c -8.3,0 -10.3,0.5 -10.5,1.3 z m 63.1,-0.6 c -0.3,0.4 -3.8,10 -7.7,21.3 -3.9,11.3 -7.6,21.7 -8.1,23.3 l -0.9,2.7 h 11 l 2.5,-8.5 h 17.9 l 2.2,8 11.4,0.5 c -6.4,-18.2 -9.01307,-24.11371 -9.6,-25 -0.52978,-0.8 -0.89345,-2.4 -1.4,-3.5 -0.1,-1.1 -1.3,-5.8 -2.8,-10.5 l -2.7,-8.5 c -8.7,-0.5 -11.5,-0.2 -11.8,0.2 z m 36.3,23.3 v 24 h 30 l -0.5,-8.5 -19.5,-0.5 v -39 h -10 z m 38.1,0 -0.1,24 h 10 l 0.5,-32.3 c 14.7,23.1 19.8,30.6 20.8,31.6 1.1,1 3.3,1.7 5.7,1.7 h 4 v -49 h -10.1 l -0.4,30.5 -19,-30 -11.4,-0.6 z m 54.2,0.3 0.3,24.3 9.5,0.5 v -49 h -10.1 z m 35.2,-23.1 c -0.6,0.7 -4.5,11.2 -8.7,23.3 -4.2,12.1 -7.7,22.3 -7.7,22.8 0,0.4 2,0.7 4.5,0.7 4.4,0 4.6,-0.1 7,-5 l 2.5,-5 c 12,1 16,1.7 16.5,2.2 0.6,0.5 1.5,2.4 2,4.1 0.9,3 1.4,3.2 5.8,3.5 3.6,0.1 4.7,-0.1 4.7,-1.3 0,-0.8 -2.9,-9.9 -6.5,-20.2 -3.6,-10.4 -7.1,-20.4 -7.8,-22.3 -1.2,-3.3 -1.5,-3.5 -6.3,-3.8 -3.3,-0.2 -5.4,0.2 -6,1 z m 36.2,0.1 c -0.2,0.7 -0.3,11.4 -0.2,23.7 l 0.1,22.5 h 9 L 737,718 c -7.3,0 -9.2,0.5 -9.4,1.3 z"
     sodipodi:nodetypes="scccscccssccscsscccccccccccccccscccccccccccccscccccssscccccsccsssccsscccscccccccccccccccccscccccccccsccccccccccccssccccccccsssccccccsccccscccscscscccccccscscccccccscccsccccsccccccccccccccccccccccccccccccccccccccccccccscscssccccsscccccccscccscccccccccccccsccccccccccccccssscccccscccccccccc" /><path
     id="Path 20"
     class="s0"
     d="m 655,635.2 c -1.9,0.5 -5.1,2.2 -6.9,3.6 -1.9,1.5 -4.4,4.7 -5.5,7.2 -1.4,3.1 -2,6.7 -2,11.5 0,5.2 0.6,8 2.1,11 1.2,2.2 3.4,5.2 5,6.7 1.5,1.5 4.2,3.2 5.8,3.8 1.6,0.6 5.5,1.2 8.5,1.2 3.9,0 6.8,-0.8 10,-2.4 3,-1.6 5.5,-4.1 7.5,-7.3 2.7,-4.3 3,-5.7 3,-12.9 0,-6.4 -0.5,-9 -2.3,-12.4 -1.2,-2.3 -3.7,-5.3 -5.4,-6.6 -1.8,-1.3 -5.1,-2.9 -7.3,-3.5 -2.2,-0.6 -5.1,-1.1 -6.5,-1 -1.4,0 -4.1,0.5 -6,1.1 z m -356.9,98.2 c 0,4.2 0.3,7.8 0.9,8.1 4.9337,1.30401 9.33512,-2.04346 11.9,-5.5 0.5,-0.8 0.7,-2.4 0.5,-3.5 -0.3,-1.1 -1.2,-2.8 -2.2,-3.8 -0.9,-1 -3.8,-2 -6.3,-2.4 l -4.6,-0.6 z m 397.1,-0.8 c -0.6,2.2 -1.8,6.6 -2.7,9.7 l -1.6,5.8 c 10,0 11,-0.3 10.5,-1.5 -0.14463,-0.95537 -1.03513,-3.10809 -1.05323,-3.78999 L 699.9,741.3 c -0.11349,-0.38356 -0.8,-3.4 -1.8,-6.7 l -1.9,-6 z"
     sodipodi:nodetypes="cccsccssccsccscccccccccccccccsccc"
     style="fill:#e9ddaf" /><path
     id="Path 21"
     class="s10"
     d="m 428,748 c 8.5,0 11,-0.1 11,-0.3 -2.00722,-5.73132 -3.46716,-11.63337 -5.29408,-17.42092 C 432.44765,736.40033 430.45421,742.2735 428,748 Z m 105.06477,-15.45334 c -0.5325,-0.81405 -3.09444,5.23134 -4.56477,14.05334 -0.4,1.2 0.5,1.5 4.5,1.5 4.1,0 5,-0.3 5,-1.8 -2.26642,-4.32344 -2.88849,-9.37444 -4.93523,-13.75334 z"
     sodipodi:nodetypes="csscscsss"
     style="fill:#e9ddaf" /><metadata
     id="metadata1"><rdf:RDF><cc:Work
         rdf:about=""><dc:title>ChatGPT Image Apr 8, 2025, 05_48_06 PM</dc:title></cc:Work></rdf:RDF></metadata></svg>
